<svg class="svg-icon" xmlns="http://www.w3.org/2000/svg" style="display:none">

  <symbol id="user" width="18" height="20" viewBox="0 0 18 20">
    <path fill="#fff" d="M0 18.998s-.264-1.97.755-2.869c.512-.454.967-.725 1.362-.861.396-.136 1.972-.96 1.972-.96l2.442-1.163.318-1.867s-.77-.738-1.048-1.59c-.278-.85-.315-1.309-.315-1.309s-.655.105-.739-.584c-.083-.688-.139-1.931-.139-1.931l.442-.335s-.09-.95.003-1.791c.092-.842.554-1.54 1.277-1.932C7.053 1.414 8.123.668 8.123.668l.074.7s.2-.477.529-.815c.255-.263.621-.555.621-.555s-.056.534-.038.68c.036.283.233.526.233.526l-.01-.508s1.11.536 1.795 1.053c.686.516 1.518.688 1.61 2.094.093 1.406.016 1.734.016 1.734l.48.273s-.124 1.623-.168 1.965c-.084.669-.728.585-.728.585s-.043.617-.348 1.366c-.297.73-1.066 1.53-1.066 1.53l.314 1.85 2.414 1.167s1.671.768 2.121.95c.523.21.986.456 1.265.852.844 1.194.763 2.883.763 2.883s-4.009 1-9 1c-4.992 0-9-1-9-1z"/>
  </symbol>

  <symbol id="house" width="16" height="14" viewBox="0 0 16 14">
    <path fill="#fff" d="M2 8h12v6l-5-.002v-4l-2 1v3L2 14zm14-.002H0l8-8z"/>
  </symbol>

  <symbol id="search" width="18" height="18" viewBox="0 0 18 18">
    <path fill="#fff" d="M10.5 0a7.5 7.5 0 1 1-4.21 13.708L2 18l-2-2 4.291-4.29A7.5 7.5 0 0 1 10.5 0zM5 7.5a5.5 5.5 0 1 0 11 0 5.5 5.5 0 0 0-11 0zM10 4s1.666-.335 3 1c1.332 1.332 1 3 1 3l-2-2-2-2z"/>
  </symbol>

  <symbol id="instagram" width="18" height="18" viewBox="0 0 18 18">
    <path fill="#fff" d="M4 0h10a4 4 0 0 1 4 4v10a4 4 0 0 1-4 4H4a4 4 0 0 1-4-4V4a4 4 0 0 1 4-4zM1.5 4.5v8.969a3 3 0 0 0 3 3h8.969a3 3 0 0 0 3-3v-8.97a3 3 0 0 0-3-2.999H4.5a3 3 0 0 0-3 3zM9 5a4 4 0 1 1 0 8 4 4 0 0 1 0-8zM6.469 8.984a2.516 2.516 0 1 0 5.031 0 2.516 2.516 0 0 0-5.031 0zM13 4a1 1 0 1 1 0 2 1 1 0 0 1 0-2z"/>
  </symbol>

  <symbol id="vk" viewBox="0 0 511.962 511.962">
    <path d="M507.399,370.471c-1.376-2.304-9.888-20.8-50.848-58.816c-42.88-39.808-37.12-33.344,14.528-102.176
      c31.456-41.92,44.032-67.52,40.096-78.464c-3.744-10.432-26.88-7.68-26.88-7.68l-76.928,0.448c0,0-5.696-0.768-9.952,1.76
      c-4.128,2.496-6.784,8.256-6.784,8.256s-12.192,32.448-28.448,60.032c-34.272,58.208-48,61.28-53.6,57.664
      c-13.024-8.416-9.76-33.856-9.76-51.904c0-56.416,8.544-79.936-16.672-86.016c-8.384-2.016-14.528-3.36-35.936-3.584
      c-27.456-0.288-50.72,0.096-63.872,6.528c-8.768,4.288-15.52,13.856-11.392,14.4c5.088,0.672,16.608,3.104,22.72,11.424
      c7.904,10.72,7.616,34.848,7.616,34.848s4.544,66.4-10.592,74.656c-10.4,5.664-24.64-5.888-55.2-58.72
      c-15.648-27.04-27.488-56.96-27.488-56.96s-2.272-5.568-6.336-8.544c-4.928-3.616-11.84-4.768-11.84-4.768l-73.152,0.448
      c0,0-10.976,0.32-15.008,5.088c-3.584,4.256-0.288,13.024-0.288,13.024s57.28,133.984,122.112,201.536
      c59.488,61.92,127.008,57.856,127.008,57.856h30.592c0,0,9.248-1.024,13.952-6.112c4.352-4.672,4.192-13.44,4.192-13.44
      s-0.608-41.056,18.464-47.104c18.784-5.952,42.912,39.68,68.48,57.248c19.328,13.28,34.016,10.368,34.016,10.368l68.384-0.96
      C488.583,400.807,524.359,398.599,507.399,370.471z" fill="#fff"/>
  </symbol>
</svg>